<svg xmlns="http://www.w3.org/2000/svg" xmlns:xlink="http://www.w3.org/1999/xlink" viewBox="0 0 70.03 70">
  <defs>
    <style>
      .cls-1 {
        fill: none;
      }

      .cls-2 {
        clip-path: url(#clip-path);
      }
    </style>
    <clipPath id="clip-path" transform="translate(0.01 0)">
      <rect class="cls-1" width="70" height="70"/>
    </clipPath>
  </defs>
  <g id="Layer_2" data-name="Layer 2">
    <g id="Layer_1-2" data-name="Layer 1">
      <g class="cls-2">
        <g>
          <path d="M35.88,13.71a6.57,6.57,0,1,1,6.56-6.56h0A6.58,6.58,0,0,1,35.88,13.71Zm0-10.21a3.65,3.65,0,1,0,3.64,3.65h0A3.64,3.64,0,0,0,35.88,3.5Z" transform="translate(0.01 0)"/>
          <path d="M63.44,42.29A6.56,6.56,0,1,1,70,35.73h0A6.56,6.56,0,0,1,63.44,42.29Zm0-10.21a3.65,3.65,0,1,0,3.64,3.65h0a3.66,3.66,0,0,0-3.64-3.65Z" transform="translate(0.01 0)"/>
          <path d="M35.73,69.12a6.56,6.56,0,1,1,6.56-6.56h0A6.56,6.56,0,0,1,35.73,69.12Zm0-10.2a3.65,3.65,0,1,0,3.65,3.64h0A3.66,3.66,0,0,0,35.73,58.92Z" transform="translate(0.01 0)"/>
          <path d="M6.56,41.42a6.57,6.57,0,1,1,6.57-6.57h0A6.58,6.58,0,0,1,6.56,41.42Zm0-10.21a3.65,3.65,0,1,0,3.65,3.64h0a3.64,3.64,0,0,0-3.65-3.64Z" transform="translate(0.01 0)"/>
          <path d="M35,70a34.84,34.84,0,0,1-19.83-6.15,1.46,1.46,0,0,1,1.58-2.45l.08,0A32.09,32.09,0,1,0,53.14,8.53c-.79-.54-1.6-1-2.43-1.51a1.46,1.46,0,1,1,1.43-2.54A35,35,0,0,1,35,70ZM10.49,59.35a1.44,1.44,0,0,1-1.07-.46l-.1-.11a1.46,1.46,0,1,1,2.14-2l.09.1a1.45,1.45,0,0,1-1.06,2.45ZM6.05,53.41a1.46,1.46,0,0,1-1.26-.73A35,35,0,0,1,35,0c.85,0,1.7,0,2.54.09A1.46,1.46,0,1,1,37.33,3c-.77-.06-1.56-.08-2.33-.08A32.09,32.09,0,0,0,7.31,51.21a1.46,1.46,0,0,1-1.26,2.2ZM44.73,4.35a1.52,1.52,0,0,1-.42-.06l-.14,0A1.46,1.46,0,1,1,45,1.45h0l.14,0a1.46,1.46,0,0,1-.42,2.86Z" transform="translate(0.01 0)"/>
          <path d="M52.11,58.67H17.6a6.82,6.82,0,0,1-6.81-6.8v-30a1.46,1.46,0,0,1,2.92,0v30a3.89,3.89,0,0,0,3.89,3.89H52.11a1.47,1.47,0,0,1,1.15.55,1.42,1.42,0,0,1,.73-1l.09-.05a1.46,1.46,0,1,1,1.48,2.51h0l-.16.09a1.46,1.46,0,0,1-1.85-.37A1.46,1.46,0,0,1,52.11,58.67Zm5.35-7.08A1.45,1.45,0,0,1,56,50.14V17.84A3.89,3.89,0,0,0,52.11,14H19.89a1.46,1.46,0,0,1,0-2.92H52.11a6.81,6.81,0,0,1,6.8,6.81v32.3a1.45,1.45,0,0,1-1.45,1.46h0ZM13.21,16.23A1.46,1.46,0,0,1,12,13.94l.11-.15a1.46,1.46,0,1,1,2.34,1.74l-.06.08A1.43,1.43,0,0,1,13.21,16.23Z" transform="translate(0.01 0)"/>
          <path d="M29.17,45.79a1.46,1.46,0,0,1-1.46-1.46,1.42,1.42,0,0,1,.23-.78L41.05,23.16a1.46,1.46,0,1,1,2.49,1.51c-.14.24-10.1,15.72-13.15,20.45A1.45,1.45,0,0,1,29.17,45.79Z" transform="translate(0.01 0)"/>
          <path d="M43.75,42.88a1.46,1.46,0,0,1-.81-2.68l7.27-4.84-6-6a1.46,1.46,0,1,1,2.06-2.06l7.29,7.29a1.45,1.45,0,0,1,0,2.06,1.37,1.37,0,0,1-.22.19l-8.75,5.83A1.46,1.46,0,0,1,43.75,42.88Z" transform="translate(0.01 0)"/>
          <path d="M24.79,42.87a1.43,1.43,0,0,1-1-.42l-7.29-7.29a1.47,1.47,0,0,1,0-2.07,1.92,1.92,0,0,1,.22-.18l8.75-5.83a1.46,1.46,0,0,1,1.62,2.42h0l-7.27,4.85,6,6a1.46,1.46,0,0,1,0,2.06,1.5,1.5,0,0,1-1,.43Z" transform="translate(0.01 0)"/>
          <rect x="17.51" y="16.63" width="2.92" height="2.92"/>
          <rect x="51.05" y="16.63" width="2.92" height="2.92"/>
          <rect x="51.05" y="50.17" width="2.92" height="2.92"/>
          <rect x="17.51" y="50.17" width="2.92" height="2.92"/>
        </g>
      </g>
    </g>
  </g>
</svg>
